<svg width="39" height="38" viewBox="0 0 39 38" fill="none" xmlns="http://www.w3.org/2000/svg">
<g filter="url(#filter0_d_2155_290)">
<mask id="path-1-inside-1_2155_290" fill="white">
<path d="M5 6C5 2.68629 7.68629 0 11 0H29C32.3137 0 35 2.68629 35 6V24C35 27.3137 32.3137 30 29 30H11C7.68629 30 5 27.3137 5 24V6Z"/>
</mask>
<path d="M5 6C5 2.68629 7.68629 0 11 0H29C32.3137 0 35 2.68629 35 6V24C35 27.3137 32.3137 30 29 30H11C7.68629 30 5 27.3137 5 24V6Z" fill="white"/>
<path d="M3 6C3 1.58172 6.58172 -2 11 -2H30C34.4183 -2 38 1.58172 38 6H32C32 3.79086 30.6569 2 29 2H11C8.79086 2 7 3.79086 7 6H3ZM38 24C38 28.9706 33.9706 33 29 33H11C6.58172 33 3 29.4183 3 25L7 24C7 25.6569 8.79086 27 11 27H29C30.6569 27 32 25.6569 32 24H38ZM11 33C6.58172 33 3 29.4183 3 25V6C3 1.58172 6.58172 -2 11 -2V2C8.79086 2 7 3.79086 7 6V24C7 25.6569 8.79086 27 11 27V33ZM30 -2C34.4183 -2 38 1.58172 38 6V24C38 28.9706 33.9706 33 29 33V27C30.6569 27 32 25.6569 32 24V6C32 3.79086 30.6569 2 29 2L30 -2Z" fill="#FFC72C" mask="url(#path-1-inside-1_2155_290)"/>
<path d="M11.4996 14.3333C11.4996 14.3333 18.2496 11.5833 20.5829 10.5833C21.4996 10.1667 24.4996 8.91668 24.4996 8.91668C24.4996 8.91668 25.9162 8.33335 25.7496 9.66668C25.7496 10.25 25.4162 12.1667 25.0829 14.1667C24.5829 17.0833 24.0829 20.3333 24.0829 20.3333C24.0829 20.3333 23.9996 21.25 23.3329 21.4167C22.6662 21.5833 21.5829 20.8333 21.4162 20.75C21.2496 20.6667 18.4996 18.9167 17.4996 18C17.2496 17.75 16.9162 17.3333 17.4996 16.75C18.9162 15.5 20.5829 13.8333 21.5829 12.8333C22.0829 12.3333 22.4996 11.25 20.5829 12.5833C17.8329 14.5 15.0829 16.3333 15.0829 16.3333C15.0829 16.3333 14.4996 16.75 13.2496 16.3333C12.0829 16 10.7496 15.5 10.7496 15.5C10.7496 15.5 9.83289 15 11.4996 14.3333Z" fill="#DA291C"/>
</g>
<defs>
<filter id="filter0_d_2155_290" x="-4" y="0" width="43" height="38" filterUnits="userSpaceOnUse" color-interpolation-filters="sRGB">
<feFlood flood-opacity="0" result="BackgroundImageFix"/>
<feColorMatrix in="SourceAlpha" type="matrix" values="0 0 0 0 0 0 0 0 0 0 0 0 0 0 0 0 0 0 127 0" result="hardAlpha"/>
<feOffset dy="4"/>
<feGaussianBlur stdDeviation="2"/>
<feComposite in2="hardAlpha" operator="out"/>
<feColorMatrix type="matrix" values="0 0 0 0 0 0 0 0 0 0 0 0 0 0 0 0 0 0 0.25 0"/>
<feBlend mode="normal" in2="BackgroundImageFix" result="effect1_dropShadow_2155_290"/>
<feBlend mode="normal" in="SourceGraphic" in2="effect1_dropShadow_2155_290" result="shape"/>
</filter>
</defs>
</svg>
