<svg width="17" height="20" viewBox="0 0 17 20" fill="none" xmlns="http://www.w3.org/2000/svg">
<g clip-path="url(#clip0_131_2168)">
<path fill-rule="evenodd" clip-rule="evenodd" d="M2.36522 0.626221C1.05894 0.626221 0 1.68516 0 2.99144V19.548L4.13913 17.1827L8.27826 19.548L12.4174 17.1827L16.5565 19.548V2.99144C16.5565 1.68516 15.4976 0.626221 14.1913 0.626221H2.36522ZM5.32174 4.17405C4.34204 4.17405 3.54783 4.96825 3.54783 5.94796C3.54783 6.92767 4.34204 7.72187 5.32174 7.72187C6.30144 7.72187 7.09565 6.92767 7.09565 5.94796C7.09565 4.96825 6.30144 4.17405 5.32174 4.17405ZM12.6623 4.52042C12.2005 4.05859 11.4517 4.05859 10.9898 4.52042L3.89421 11.6161C3.43237 12.0779 3.43237 12.8267 3.89421 13.2886C4.35604 13.7504 5.10483 13.7504 5.56667 13.2886L12.6623 6.19289C13.1241 5.73105 13.1241 4.98226 12.6623 4.52042ZM11.2348 10.0871C10.2551 10.0871 9.46087 10.8813 9.46087 11.861C9.46087 12.8407 10.2551 13.6349 11.2348 13.6349C12.2145 13.6349 13.0087 12.8407 13.0087 11.861C13.0087 10.8813 12.2145 10.0871 11.2348 10.0871Z" fill="#334155"/>
<path d="M14.7825 3.43481H2.21729V16H14.7825V3.43481Z" fill="#334155"/>
<path d="M9.05849 7.51515C9.03373 7.21151 8.91776 6.97466 8.71058 6.80463C8.50643 6.63458 8.19563 6.54957 7.77809 6.54957C7.51215 6.54957 7.29411 6.58145 7.12401 6.64522C6.95701 6.70594 6.83331 6.78945 6.7529 6.89572C6.67249 7.00199 6.63073 7.12345 6.62764 7.26009C6.62146 7.37244 6.64155 7.47416 6.68795 7.56525C6.73743 7.6533 6.81475 7.73377 6.9199 7.80664C7.02505 7.8765 7.15958 7.94029 7.32349 7.99794C7.48739 8.05567 7.68223 8.10726 7.90803 8.15279L8.68737 8.3168C9.21311 8.42612 9.6631 8.57032 10.0373 8.74949C10.4115 8.92858 10.7177 9.13967 10.9558 9.38255C11.194 9.6224 11.3687 9.8927 11.48 10.1933C11.5944 10.4939 11.6532 10.8218 11.6563 11.1771C11.6532 11.7904 11.497 12.3097 11.1878 12.7347C10.8784 13.1599 10.4362 13.4832 9.86104 13.7049C9.28887 13.9265 8.60074 14.0374 7.79664 14.0374C6.97092 14.0374 6.25034 13.9174 5.6349 13.6776C5.02255 13.4377 4.54628 13.0688 4.20609 12.5708C3.86899 12.0698 3.69889 11.4291 3.6958 10.6488H6.14518C6.16065 10.9341 6.23332 11.1741 6.36321 11.3684C6.49311 11.5627 6.67558 11.71 6.91061 11.8102C7.14875 11.9104 7.43174 11.9605 7.75954 11.9605C8.03479 11.9605 8.26518 11.9271 8.45077 11.8603C8.6363 11.7934 8.77703 11.7009 8.87289 11.5825C8.96876 11.4641 9.01828 11.3289 9.02138 11.1771C9.01828 11.0344 8.97031 10.9099 8.87755 10.8036C8.78789 10.6943 8.6394 10.5972 8.43222 10.5122C8.22497 10.4241 7.94514 10.3421 7.59257 10.2661L6.64619 10.0657C5.805 9.88657 5.14162 9.58751 4.65607 9.16843C4.17362 8.74646 3.93393 8.17104 3.93703 7.44228C3.93393 6.85018 4.09475 6.33246 4.41948 5.88914C4.7473 5.44279 5.20037 5.09512 5.77871 4.84613C6.36012 4.59715 7.02659 4.47266 7.77809 4.47266C8.54509 4.47266 9.20846 4.59866 9.7682 4.85068C10.328 5.10271 10.7594 5.45797 11.0625 5.91647C11.3687 6.37194 11.5233 6.90483 11.5264 7.51515H9.05849Z" fill="#64748B"/>
<path d="M9.87533 7.51515C9.85064 7.21151 9.73467 6.97466 9.52742 6.80463C9.32335 6.63458 9.01254 6.54957 8.59501 6.54957C8.32907 6.54957 8.11103 6.58145 7.94088 6.64522C7.77391 6.70594 7.65018 6.78945 7.56976 6.89572C7.48934 7.00199 7.44766 7.12345 7.44455 7.26009C7.43834 7.37244 7.45845 7.47416 7.50487 7.56525C7.55431 7.6533 7.63163 7.73377 7.7368 7.80664C7.84191 7.8765 7.9765 7.94029 8.14037 7.99794C8.30431 8.05567 8.49914 8.10726 8.72487 8.15279L9.50421 8.3168C10.03 8.42612 10.48 8.57032 10.8542 8.74949C11.2284 8.92858 11.5346 9.13967 11.7727 9.38255C12.0108 9.6224 12.1856 9.8927 12.2969 10.1933C12.4113 10.4939 12.47 10.8218 12.4732 11.1771C12.47 11.7904 12.3139 12.3097 12.0046 12.7347C11.6954 13.1599 11.2531 13.4832 10.678 13.7049C10.1058 13.9265 9.41766 14.0374 8.61356 14.0374C7.7878 14.0374 7.06723 13.9174 6.4518 13.6776C5.83945 13.4377 5.36318 13.0688 5.02298 12.5708C4.68588 12.0698 4.51578 11.4291 4.5127 10.6488H6.96208C6.97755 10.9341 7.05022 11.1741 7.18011 11.3684C7.31001 11.5627 7.49245 11.71 7.72749 11.8102C7.96564 11.9104 8.24865 11.9605 8.57646 11.9605C8.85171 11.9605 9.0821 11.9271 9.26769 11.8603C9.45321 11.7934 9.59394 11.7009 9.68981 11.5825C9.78567 11.4641 9.8352 11.3289 9.83823 11.1771C9.8352 11.0344 9.78723 10.9099 9.69447 10.8036C9.60473 10.6943 9.45632 10.5972 9.24914 10.5122C9.04189 10.4241 8.76198 10.3421 8.40941 10.2661L7.4631 10.0657C6.62189 9.88657 5.95852 9.58751 5.47297 9.16843C4.99051 8.74646 4.75083 8.17104 4.75393 7.44228C4.75083 6.85018 4.91165 6.33246 5.23638 5.88914C5.5642 5.44279 6.01728 5.09512 6.5956 4.84613C7.17702 4.59715 7.84346 4.47266 8.59501 4.47266C9.362 4.47266 10.0254 4.59866 10.5851 4.85068C11.1449 5.10271 11.5763 5.45797 11.8794 5.91647C12.1856 6.37194 12.3402 6.90483 12.3433 7.51515H9.87533Z" fill="white"/>
</g>
<defs>
<clipPath id="clip0_131_2168">
<rect width="17" height="19.2174" fill="white" transform="translate(0 0.478271)"/>
</clipPath>
</defs>
</svg>
