<svg width="49" height="50" viewBox="0 0 49 50" fill="none" xmlns="http://www.w3.org/2000/svg">
<path d="M25.1207 0.683167C27.6527 2.47976 30.8887 4.56001 32.3175 5.30596L33.2001 5.76824H39.756H46.312L46.4276 6.29356C46.6167 7.14457 47.0685 11.0529 47.142 12.3978C47.2051 13.606 47.2156 13.6585 47.4782 13.7846C47.867 13.9737 48.014 14.3414 48.014 15.203C48.014 16.6108 47.6358 17.3883 46.7218 17.8821C46.3015 18.1027 46.1754 18.1132 43.4438 18.1132H40.6071L40.5755 16.7999C40.5335 14.9823 40.8382 14.2469 41.7943 13.8161C42.1725 13.648 42.2145 13.585 42.2776 13.1542C42.3091 12.8915 42.3406 12.0721 42.3406 11.3261V9.98129L37.2765 9.94977L32.202 9.91825L31.414 9.58205C30.4789 9.1723 28.861 8.28977 26.0242 6.64027L23.9545 5.43203L23.2926 5.85229C21.5906 6.95546 16.9467 9.36142 15.7805 9.75015C15.1712 9.96028 14.9085 9.97079 10.4013 9.97079H5.67343V11.7884V13.606L6.03065 13.7321C7.16533 14.1418 7.57508 15.2135 7.39647 17.3252L7.32293 18.1762L4.52824 18.1447C1.89114 18.1132 1.71254 18.1027 1.30279 17.8821C0.74595 17.5879 0.252153 17.01 0.115571 16.5162C0.0525324 16.2956 0 15.7073 0 15.203C0 14.3835 0.0210133 14.2679 0.273166 13.9737C0.420255 13.7951 0.598861 13.648 0.672406 13.648C0.756457 13.648 0.830002 13.0702 0.924559 11.6728C1.06114 9.64509 1.23975 8.14268 1.53393 6.64027L1.71254 5.76824L8.13192 5.74723L14.5513 5.71571L15.3393 5.33748C16.5895 4.73862 19.3002 3.07862 21.6431 1.47115C22.8303 0.662155 23.8704 0.000259399 23.965 0.000259399C24.0596 -0.0102463 24.5849 0.304939 25.1207 0.683167ZM31.8973 14.0893C32.2545 14.3519 36.0368 18.0817 36.0368 18.1657C36.0368 18.2078 31.7712 18.2288 26.5601 18.2288L17.0728 18.2183L16.6526 18.4389C15.749 18.9222 15.3078 19.5946 15.3183 20.4456C15.3288 21.4858 16.1378 22.4418 17.2304 22.673C17.5876 22.7465 20.0461 22.7885 24.5639 22.7885C32.0129 22.7885 31.9393 22.7885 33.1896 23.4189C36.4571 25.0684 37.6758 28.9663 36.0158 32.4439C35.2593 34.0303 33.6624 35.3857 31.8343 35.9845C31.2984 36.1631 30.6786 36.1841 23.8599 36.2157L16.4635 36.2472L16.0747 35.9845C15.5809 35.6588 11.7671 31.8975 11.7671 31.74C11.7671 31.6454 14.11 31.6139 21.1913 31.6139C30.5315 31.6139 30.6155 31.6139 31.0673 31.3932C31.7922 31.0465 32.3596 30.185 32.3596 29.4496C32.3596 28.6721 31.8237 27.8946 31.0148 27.4954L30.521 27.2537L23.2716 27.2012L16.0222 27.1487L15.3393 26.907C13.3746 26.1926 11.9772 24.7532 11.2838 22.736C11.0422 22.0216 11.0002 21.7169 11.0107 20.7398C11.0107 18.586 11.5465 17.3042 13.0699 15.8018C14.068 14.8142 14.8875 14.2994 15.9276 14.0157C16.3374 13.9107 17.9974 13.8792 24.0175 13.8686L31.5926 13.8581L31.8973 14.0893ZM6.26179 22.3893C6.74508 22.652 7.22837 23.2508 7.32293 23.7026C7.36496 23.9232 7.40698 24.6902 7.40698 25.4151V26.7284L4.09748 26.7599C2.27988 26.7704 0.682914 26.7599 0.556838 26.7284C0.0840519 26.6129 -0.021013 26.1611 0.0210124 24.5326C0.0735442 22.1476 0.0735434 22.1477 3.51963 22.1792C5.55786 22.2107 5.98862 22.2422 6.26179 22.3893ZM47.3101 22.3998C47.909 22.7885 47.9615 22.9882 47.93 24.7847C47.8985 26.2766 47.8775 26.4237 47.6778 26.5918C47.4887 26.7599 47.1525 26.7809 44.0111 26.7809H40.5545V25.3311C40.5545 24.1544 40.5966 23.8077 40.7541 23.4609C40.9748 22.9777 41.6052 22.4103 42.0779 22.2632C42.2566 22.2107 43.4333 22.1792 44.7045 22.1897C46.7218 22.2107 47.058 22.2317 47.3101 22.3998ZM7.08128 32.2653C9.31914 36.846 12.366 39.6933 17.7978 42.2778C19.5103 43.0973 23.7444 44.9569 23.8914 44.9569C23.9965 44.9569 24.5744 44.7048 28.7349 42.8872C33.4207 40.8279 36.1103 39.0314 38.1591 36.5624C39.3253 35.165 40.1343 33.9043 40.9328 32.2653L41.6052 30.8784H43.822H46.0388L45.9653 31.1621C45.9338 31.3302 45.7342 31.9081 45.524 32.4544C44.0847 36.3733 41.374 40.0085 37.8964 42.6981C35.8267 44.3056 33.7464 45.4718 29.9956 47.1108C28.7244 47.6676 26.8332 48.5501 25.7931 49.0649L23.902 50L22.0633 49.0649C21.0547 48.5501 19.4262 47.7832 18.4387 47.3629C13.4271 45.2091 10.3593 43.2549 7.61711 40.4812C5.74697 38.5901 4.30761 36.5308 3.13089 34.0619C2.66861 33.0743 1.99621 31.2672 1.99621 30.994C1.99621 30.9099 2.66861 30.8784 4.20254 30.8784H6.39837L7.08128 32.2653Z" fill="#2B2929"/>
</svg>
