<svg width="60" height="60" viewBox="0 0 60 60" fill="none" xmlns="http://www.w3.org/2000/svg">
<path fill-rule="evenodd" clip-rule="evenodd" d="M12.1429 5C8.19797 5 5 7.79821 5 11.25V55L17.5 48.75L30 55L42.5 48.75L55 55V11.25C55 7.79821 51.802 5 47.8571 5H12.1429Z" fill="white"/>
<path d="M34.3945 21.6475C34.3092 20.71 33.93 19.9813 33.2567 19.4614C32.5919 18.933 31.6416 18.6688 30.4058 18.6688C29.5876 18.6688 28.9058 18.7753 28.3604 18.9884C27.8149 19.2015 27.4058 19.4955 27.1331 19.8705C26.8604 20.237 26.7198 20.6589 26.7112 21.1361C26.6942 21.5282 26.7709 21.8734 26.9413 22.1716C27.1203 22.4699 27.376 22.7341 27.7084 22.9643C28.0493 23.1859 28.4584 23.3819 28.9357 23.5523C29.4129 23.7228 29.9499 23.8719 30.5465 23.9998L32.7965 24.5111C34.0919 24.7924 35.234 25.1674 36.2226 25.6361C37.2198 26.1049 38.055 26.6631 38.7283 27.3109C39.4101 27.9586 39.9257 28.7043 40.2751 29.5481C40.6246 30.3918 40.8036 31.3378 40.8121 32.3861C40.8036 34.0395 40.3859 35.4586 39.5592 36.6432C38.7325 37.8279 37.5436 38.7356 35.9925 39.3663C34.4499 39.9969 32.5876 40.3123 30.4058 40.3123C28.2155 40.3123 26.3064 39.9842 24.6786 39.3279C23.0507 38.6717 21.7851 37.6745 20.8817 36.3364C19.9783 34.9984 19.5138 33.3066 19.4882 31.2611H25.5479C25.599 32.1049 25.8249 32.808 26.2254 33.3705C26.626 33.933 27.1757 34.3592 27.8746 34.6489C28.582 34.9387 29.4001 35.0836 30.3291 35.0836C31.1814 35.0836 31.9058 34.9685 32.5024 34.7384C33.1075 34.5083 33.572 34.1887 33.8959 33.7796C34.2198 33.3705 34.3859 32.9018 34.3945 32.3734C34.3859 31.879 34.2325 31.4572 33.9342 31.1077C33.6359 30.7498 33.1757 30.443 32.5536 30.1873C31.9399 29.9231 31.1558 29.6802 30.2013 29.4586L27.4655 28.8194C25.1984 28.2995 23.4129 27.46 22.109 26.3009C20.805 25.1333 20.1573 23.5566 20.1658 21.5708C20.1573 19.9515 20.5919 18.5324 21.4698 17.3137C22.3476 16.0949 23.5621 15.1447 25.1132 14.4628C26.6644 13.781 28.4328 13.4401 30.4186 13.4401C32.447 13.4401 34.207 13.7853 35.6984 14.4756C37.1984 15.1574 38.3618 16.1163 39.1885 17.352C40.0152 18.5878 40.4371 20.0197 40.4541 21.6475H34.3945Z" fill="#2B2929"/>
<path d="M34.3945 21.6475C34.3092 20.71 33.93 19.9813 33.2567 19.4614C32.5919 18.933 31.6416 18.6688 30.4058 18.6688C29.5876 18.6688 28.9058 18.7753 28.3604 18.9884C27.8149 19.2015 27.4058 19.4955 27.1331 19.8705C26.8604 20.237 26.7198 20.6589 26.7112 21.1361C26.6942 21.5282 26.7709 21.8734 26.9413 22.1716C27.1203 22.4699 27.376 22.7341 27.7084 22.9643C28.0493 23.1859 28.4584 23.3819 28.9357 23.5523C29.4129 23.7228 29.9499 23.8719 30.5465 23.9998L32.7965 24.5111C34.0919 24.7924 35.234 25.1674 36.2226 25.6361C37.2198 26.1049 38.055 26.6631 38.7283 27.3109C39.4101 27.9586 39.9257 28.7043 40.2751 29.5481C40.6246 30.3918 40.8036 31.3378 40.8121 32.3861C40.8036 34.0395 40.3859 35.4586 39.5592 36.6432C38.7325 37.8279 37.5436 38.7356 35.9925 39.3663C34.4499 39.9969 32.5876 40.3123 30.4058 40.3123C28.2155 40.3123 26.3064 39.9842 24.6786 39.3279C23.0507 38.6717 21.7851 37.6745 20.8817 36.3364C19.9783 34.9984 19.5138 33.3066 19.4882 31.2611H25.5479C25.599 32.1049 25.8249 32.808 26.2254 33.3705C26.626 33.933 27.1757 34.3592 27.8746 34.6489C28.582 34.9387 29.4001 35.0836 30.3291 35.0836C31.1814 35.0836 31.9058 34.9685 32.5024 34.7384C33.1075 34.5083 33.572 34.1887 33.8959 33.7796C34.2198 33.3705 34.3859 32.9018 34.3945 32.3734C34.3859 31.879 34.2325 31.4572 33.9342 31.1077C33.6359 30.7498 33.1757 30.443 32.5536 30.1873C31.9399 29.9231 31.1558 29.6802 30.2013 29.4586L27.4655 28.8194C25.1984 28.2995 23.4129 27.46 22.109 26.3009C20.805 25.1333 20.1573 23.5566 20.1658 21.5708C20.1573 19.9515 20.5919 18.5324 21.4698 17.3137C22.3476 16.0949 23.5621 15.1447 25.1132 14.4628C26.6644 13.781 28.4328 13.4401 30.4186 13.4401C32.447 13.4401 34.207 13.7853 35.6984 14.4756C37.1984 15.1574 38.3618 16.1163 39.1885 17.352C40.0152 18.5878 40.4371 20.0197 40.4541 21.6475H34.3945Z" fill="#2B2929"/>
</svg>
