<svg width="350" height="256" viewBox="0 0 350 256" fill="none" xmlns="http://www.w3.org/2000/svg">
<path d="M-80.2354 225.655C2.89843 204.649 68.4948 205.416 114.81 210.794C153.421 215.278 162.968 221.151 196.397 221.509C268.938 222.284 360.315 196.088 358.275 156.444C357.271 136.915 330.743 128.491 298.705 100.792C269.885 75.8749 238.279 36.4127 233.194 -25.3903" stroke="white" stroke-opacity="0.12" stroke-miterlimit="10"/>
<path d="M-71.5231 230.57C6.31147 208.387 69.5125 208.142 113.968 212.453C151.379 216.084 161.636 220.577 195.719 220.132C267.219 219.2 353.562 194.918 353.801 156.549C353.926 136.786 329.791 127.257 299.141 98.8093C272.158 73.7644 241.744 34.5653 236.314 -26.4189" stroke="white" stroke-opacity="0.12" stroke-miterlimit="10"/>
<path d="M-62.8121 235.481C9.72284 212.121 70.5607 210.851 113.129 214.103C149.394 216.873 160.279 220.013 195.045 218.745C265.47 216.178 346.964 193.705 349.329 156.637C350.606 136.611 328.828 126.036 299.574 96.8124C274.403 71.6651 245.202 32.7067 239.427 -27.4598" stroke="white" stroke-opacity="0.12" stroke-miterlimit="10"/>
<path d="M-54.1026 240.391C13.1342 215.855 71.6462 213.546 112.298 215.757C147.451 217.663 158.902 219.473 194.375 217.355C263.702 213.226 340.527 192.472 344.859 156.723C347.323 136.412 327.857 124.842 300.008 94.8129C276.617 69.5939 248.661 30.8462 242.531 -28.5003" stroke="white" stroke-opacity="0.12" stroke-miterlimit="10"/>
<path d="M-45.3958 245.299C16.5471 219.582 72.767 216.217 111.455 217.402C145.555 218.445 157.52 218.949 193.696 215.972C261.912 210.351 334.237 191.234 340.383 156.814C344.066 136.192 326.859 123.678 300.433 92.8194C278.795 67.5497 252.111 28.9902 245.635 -29.5337" stroke="white" stroke-opacity="0.12" stroke-miterlimit="10"/>
<path d="M-36.6914 250.206C19.9523 223.315 73.9264 218.863 110.618 219.05C143.712 219.218 156.118 218.46 193.023 214.584C260.126 207.54 328.102 189.986 335.914 156.903C340.859 135.955 325.834 122.54 300.864 90.823C280.941 65.5242 255.566 27.1326 248.733 -30.5779" stroke="white" stroke-opacity="0.12" stroke-miterlimit="10"/>
<path d="M-27.9896 255.111C23.3545 227.041 75.1183 221.473 109.782 220.697C141.921 219.978 154.718 217.993 192.35 213.199C258.346 204.791 322.112 188.739 331.445 156.99C337.701 135.706 324.788 121.416 301.296 88.8278C283.051 63.517 259.024 25.2729 251.837 -31.6171" stroke="white" stroke-opacity="0.12" stroke-miterlimit="10"/>
<path d="M-19.284 260.014C26.7714 230.77 76.3505 224.041 108.95 222.342C140.186 220.715 153.331 217.547 191.683 211.811C256.584 202.098 316.265 187.494 326.982 157.076C334.603 135.448 323.705 120.314 301.732 86.8298C285.122 61.5278 262.477 23.4208 254.94 -32.6575" stroke="white" stroke-opacity="0.12" stroke-miterlimit="10"/>
<path d="M-10.5902 264.919C30.1745 234.5 77.6009 226.563 108.112 223.992C138.496 221.428 151.945 217.143 191.007 210.427C254.837 199.459 310.542 186.264 322.514 157.166C331.559 135.191 322.57 119.232 302.16 84.8369C287.155 59.5499 265.925 21.5611 258.047 -33.7016" stroke="white" stroke-opacity="0.12" stroke-miterlimit="10"/>
<path d="M-1.89805 269.818C33.5784 238.223 78.8701 229.024 107.273 225.636C136.84 222.108 150.562 216.751 190.332 209.04C253.107 196.868 304.932 185.046 318.047 157.252C328.576 134.938 321.388 118.158 302.588 82.8399C289.144 57.5807 269.374 19.7019 261.139 -34.7404" stroke="white" stroke-opacity="0.12" stroke-miterlimit="10"/>
<path d="M6.80132 274.721C36.9939 241.947 80.157 231.427 106.445 227.283C135.227 222.746 149.214 216.392 189.666 207.656C251.418 194.321 299.444 183.85 313.59 157.341C325.674 134.696 320.162 117.099 303.025 80.8472C291.101 55.6239 272.831 17.8475 264.248 -35.7778" stroke="white" stroke-opacity="0.12" stroke-miterlimit="10"/>
<path d="M15.4933 279.619C40.3931 245.674 81.4344 233.761 105.611 228.928C133.624 223.329 147.888 216.055 188.996 206.272C249.757 191.809 294.05 182.673 309.13 157.428C322.845 134.47 318.878 116.043 303.459 78.8536C293.016 53.6689 276.281 15.9908 267.347 -36.8185" stroke="white" stroke-opacity="0.12" stroke-miterlimit="10"/>
<path d="M24.1844 284.518C43.7981 249.398 82.69 236.026 104.78 230.573C132.014 223.85 146.577 215.749 188.328 204.887C248.131 189.33 288.746 181.521 304.673 157.515C320.095 134.269 317.538 114.991 303.893 76.8598C294.895 51.7165 279.732 14.1352 270.448 -37.859" stroke="white" stroke-opacity="0.12" stroke-miterlimit="10"/>
<path d="M32.8726 289.414C47.2037 253.119 83.9097 238.223 103.948 232.217C130.369 224.298 145.3 215.463 187.657 203.504C246.536 186.88 283.511 180.395 300.216 157.604C317.437 134.094 316.136 113.939 304.325 74.8674C296.738 49.7622 283.18 12.2775 273.551 -38.897" stroke="white" stroke-opacity="0.12" stroke-miterlimit="10"/>
<path d="M41.5584 294.309C50.6062 256.84 85.0738 240.358 103.112 233.864C128.646 224.669 144.048 215.202 186.988 202.121C244.979 184.454 278.355 179.305 295.758 157.692C314.869 133.959 314.675 112.883 304.753 72.8733C298.539 47.8063 286.626 10.4234 276.641 -39.9393" stroke="white" stroke-opacity="0.12" stroke-miterlimit="10"/>
<path d="M50.2439 299.204C54.0148 260.557 86.1677 242.439 102.285 235.504C126.819 224.949 142.838 214.958 186.324 200.735C243.466 182.05 273.257 178.241 291.311 157.776C312.402 133.865 313.164 111.819 305.197 70.8805C300.325 45.8431 290.084 8.56794 279.749 -40.9791" stroke="white" stroke-opacity="0.12" stroke-miterlimit="10"/>
<path d="M58.9313 304.093C57.4176 264.277 91.6186 246.885 101.461 237.145C117.559 221.211 141.663 214.734 185.664 199.348C241.986 179.656 268.202 177.214 286.859 157.863C310.037 133.829 311.581 110.743 305.632 68.8879C302.076 43.8763 293.533 6.71311 282.853 -42.0171" stroke="white" stroke-opacity="0.12" stroke-miterlimit="10"/>
<path d="M67.6564 309.076C60.864 268.077 91.9798 248.441 100.685 238.862C115.943 222.072 140.579 214.6 185.073 198.03C240.643 177.339 263.282 176.285 282.513 158.001C307.878 133.899 310.058 109.697 306.176 66.9243C303.908 41.9219 297.087 4.87169 286.05 -43.0576" stroke="white" stroke-opacity="0.12" stroke-miterlimit="10"/>
<path d="M76.403 314.081C64.3265 271.895 92.0783 250.028 99.9278 240.595C114.581 222.987 139.552 214.498 184.512 196.727C239.352 175.045 258.405 175.406 278.2 158.158C305.86 134.056 308.511 108.65 306.758 64.9746C305.756 39.9708 300.68 3.03902 289.292 -44.0886" stroke="white" stroke-opacity="0.12" stroke-miterlimit="10"/>
<path d="M85.1496 319.086C67.7893 275.714 89.7454 250.824 99.1692 242.327C117.74 225.595 138.559 214.409 183.942 195.419C238.094 172.753 253.53 174.564 273.873 158.307C303.927 134.286 306.891 107.576 307.325 63.0144C307.567 37.9975 304.263 1.19953 292.516 -45.128" stroke="white" stroke-opacity="0.12" stroke-miterlimit="10"/>
<path d="M93.898 324.09C71.2522 279.532 90.3994 252.987 98.4082 244.06C114.875 225.707 137.596 214.335 183.368 194.111C236.865 170.469 248.651 173.765 269.543 158.459C302.098 134.608 305.234 106.492 307.895 61.0614C309.362 36.0185 307.846 -0.634364 295.748 -46.1612" stroke="white" stroke-opacity="0.12" stroke-miterlimit="10"/>
<path d="M102.649 329.096C74.7159 283.35 90.9577 255.213 97.6451 245.791C111.791 225.852 136.667 214.272 182.793 192.799C235.668 168.184 243.756 173.006 265.209 158.607C300.349 135.018 303.516 105.382 308.461 59.1028C311.142 34.0264 311.424 -2.47349 298.974 -47.1984" stroke="white" stroke-opacity="0.12" stroke-miterlimit="10"/>
</svg>
