<svg width="31" height="30" viewBox="0 0 31 30" fill="none" xmlns="http://www.w3.org/2000/svg">
<path d="M11.75 5H6.75C6.05964 5 5.5 5.55964 5.5 6.25V11.25C5.5 11.9404 6.05964 12.5 6.75 12.5H11.75C12.4404 12.5 13 11.9404 13 11.25V6.25C13 5.55964 12.4404 5 11.75 5Z" stroke="#2B2929" stroke-width="2" stroke-linecap="round" stroke-linejoin="round"/>
<path d="M24.25 5H19.25C18.5596 5 18 5.55964 18 6.25V11.25C18 11.9404 18.5596 12.5 19.25 12.5H24.25C24.9404 12.5 25.5 11.9404 25.5 11.25V6.25C25.5 5.55964 24.9404 5 24.25 5Z" stroke="#2B2929" stroke-width="2" stroke-linecap="round" stroke-linejoin="round"/>
<path d="M11.75 17.5H6.75C6.05964 17.5 5.5 18.0596 5.5 18.75V23.75C5.5 24.4404 6.05964 25 6.75 25H11.75C12.4404 25 13 24.4404 13 23.75V18.75C13 18.0596 12.4404 17.5 11.75 17.5Z" stroke="#2B2929" stroke-width="2" stroke-linecap="round" stroke-linejoin="round"/>
<path d="M24.25 17.5H19.25C18.5596 17.5 18 18.0596 18 18.75V23.75C18 24.4404 18.5596 25 19.25 25H24.25C24.9404 25 25.5 24.4404 25.5 23.75V18.75C25.5 18.0596 24.9404 17.5 24.25 17.5Z" stroke="#2B2929" stroke-width="2" stroke-linecap="round" stroke-linejoin="round"/>
</svg>
