<svg width="31" height="30" viewBox="0 0 31 30" fill="none" xmlns="http://www.w3.org/2000/svg">
<path d="M4.25 25L5.875 20.125C4.47056 18.0478 3.96249 15.588 4.44527 13.2029C4.92805 10.8177 6.36883 8.66957 8.49971 7.15782C10.6306 5.64607 13.3066 4.8736 16.0301 4.98403C18.7536 5.09446 21.3394 6.08027 23.3066 7.75818C25.2738 9.43608 26.4886 11.6919 26.7251 14.1062C26.9616 16.5205 26.2037 18.929 24.5923 20.8839C22.981 22.8388 20.6258 24.207 17.9647 24.7342C15.3037 25.2613 12.5178 24.9116 10.125 23.75L4.25 25Z" stroke="#64748B" stroke-width="1.5" stroke-linecap="round" stroke-linejoin="round"/>
<path d="M15.5 15V15.0125" stroke="#64748B" stroke-width="2" stroke-linecap="round" stroke-linejoin="round"/>
<path d="M10.5 15V15.0125" stroke="#64748B" stroke-width="2" stroke-linecap="round" stroke-linejoin="round"/>
<path d="M20.5 15V15.0125" stroke="#64748B" stroke-width="2" stroke-linecap="round" stroke-linejoin="round"/>
</svg>
