<svg width="17" height="20" viewBox="0 0 17 20" fill="none" xmlns="http://www.w3.org/2000/svg">
<path d="M10.5003 1.6665H5.50033C5.27931 1.6665 5.06735 1.7543 4.91107 1.91058C4.75479 2.06686 4.66699 2.27882 4.66699 2.49984V4.1665C4.66699 4.6665 5.00033 4.99984 5.50033 4.99984H10.5003C11.0003 4.99984 11.3337 4.6665 11.3337 4.1665V2.49984C11.3337 1.99984 11.0003 1.6665 10.5003 1.6665Z" stroke="#64748B" stroke-width="2" stroke-linecap="round" stroke-linejoin="round"/>
<path d="M4.66683 3.33301H3.00016C2.55814 3.33301 2.13421 3.5086 1.82165 3.82116C1.50909 4.13372 1.3335 4.55765 1.3335 4.99967V16.6663C1.3335 17.1084 1.50909 17.5323 1.82165 17.8449C2.13421 18.1574 2.55814 18.333 3.00016 18.333H13.0002C13.4422 18.333 13.8661 18.1574 14.1787 17.8449C14.4912 17.5323 14.6668 17.1084 14.6668 16.6663M11.3335 3.33301H13.0002C13.4422 3.33301 13.8661 3.5086 14.1787 3.82116C14.4912 4.13372 14.6668 4.55765 14.6668 4.99967V6.66634M7.16683 11.6663H15.5002" stroke="#64748B" stroke-width="2" stroke-linecap="round" stroke-linejoin="round"/>
<path d="M12.167 8.33301L15.5003 11.6663L12.167 14.9997" stroke="#64748B" stroke-width="2" stroke-linecap="round" stroke-linejoin="round"/>
</svg>
