<svg width="48" height="48" viewBox="0 0 48 48" fill="none" xmlns="http://www.w3.org/2000/svg">
<rect width="48" height="48" rx="12" fill="#FFFBEB"/>
<path d="M27.6 14.7C25.4612 13.869 23.1017 13.7989 20.9173 14.5014C18.7329 15.2038 16.8566 16.6361 15.603 18.558C14.3494 20.4798 13.7949 22.7743 14.0324 25.0565C14.27 27.3387 15.2852 29.4698 16.9076 31.0923C18.5301 32.7148 20.6612 33.73 22.9435 33.9675C25.2257 34.2051 27.5202 33.6505 29.442 32.397C31.3638 31.1434 32.7961 29.267 33.4986 27.0826C34.201 24.8983 34.1309 22.5388 33.3 20.4" stroke="#FFAA05" stroke-width="2" stroke-linecap="round" stroke-linejoin="round"/>
<path d="M24 26C25.1046 26 26 25.1046 26 24C26 22.8954 25.1046 22 24 22C22.8954 22 22 22.8954 22 24C22 25.1046 22.8954 26 24 26Z" stroke="#FFAA05" stroke-width="2" stroke-linecap="round" stroke-linejoin="round"/>
<path d="M25.4 22.6L31 17" stroke="#FFAA05" stroke-width="2" stroke-linecap="round" stroke-linejoin="round"/>
</svg>
