<svg width="31" height="30" viewBox="0 0 31 30" fill="none" xmlns="http://www.w3.org/2000/svg">
<path d="M21.028 23.5957V21.929C21.028 21.045 20.5999 20.1971 19.8381 19.572C19.0762 18.9469 18.0429 18.5957 16.9655 18.5957H8.84045C7.76301 18.5957 6.7297 18.9469 5.96783 19.572C5.20597 20.1971 4.77795 21.045 4.77795 21.929V23.5957" stroke="#64748B" stroke-width="1.5" stroke-linecap="round" stroke-linejoin="round"/>
<path d="M12.278 13.5957C14.349 13.5957 16.028 11.9168 16.028 9.8457C16.028 7.77464 14.349 6.0957 12.278 6.0957C10.2069 6.0957 8.52795 7.77464 8.52795 9.8457C8.52795 11.9168 10.2069 13.5957 12.278 13.5957Z" stroke="#64748B" stroke-width="1.5" stroke-linecap="round" stroke-linejoin="round"/>
<path d="M26.028 23.5957V21.8921C26.0274 21.1372 25.7816 20.4039 25.3291 19.8072C24.8766 19.2106 24.2431 18.7844 23.528 18.5957" stroke="#64748B" stroke-width="1.5" stroke-linecap="round" stroke-linejoin="round"/>
<path d="M19.778 6.0957C20.4931 6.3089 21.127 6.79316 21.5796 7.47213C22.0323 8.15111 22.278 8.98618 22.278 9.8457C22.278 10.7052 22.0323 11.5403 21.5796 12.2193C21.127 12.8982 20.4931 13.3825 19.778 13.5957" stroke="#64748B" stroke-width="1.5" stroke-linecap="round" stroke-linejoin="round"/>
</svg>
