<svg width="31" height="30" viewBox="0 0 31 30" fill="none" xmlns="http://www.w3.org/2000/svg">
<path d="M13 17.5L26.75 3.75" stroke="#64748B" stroke-width="1.5" stroke-linecap="round" stroke-linejoin="round"/>
<path d="M26.75 3.75L18.625 26.25C18.5702 26.3697 18.4821 26.4711 18.3713 26.5422C18.2605 26.6133 18.1317 26.6511 18 26.6511C17.8684 26.6511 17.7395 26.6133 17.6287 26.5422C17.5179 26.4711 17.4299 26.3697 17.375 26.25L13 17.5L4.25003 13.125C4.13035 13.0702 4.02893 12.9821 3.95783 12.8713C3.88673 12.7605 3.84894 12.6316 3.84894 12.5C3.84894 12.3684 3.88673 12.2395 3.95783 12.1287C4.02893 12.0179 4.13035 11.9298 4.25003 11.875L26.75 3.75Z" stroke="#64748B" stroke-width="1.5" stroke-linecap="round" stroke-linejoin="round"/>
</svg>
