<svg width="31" height="30" viewBox="0 0 31 30" fill="none" xmlns="http://www.w3.org/2000/svg">
<path d="M13.4062 5.39625C13.9387 3.20125 17.0613 3.20125 17.5938 5.39625C17.6736 5.726 17.8303 6.03222 18.0509 6.29C18.2715 6.54778 18.5499 6.74982 18.8633 6.87968C19.1768 7.00955 19.5165 7.06356 19.8547 7.03734C20.193 7.01111 20.5203 6.90538 20.81 6.72875C22.7387 5.55375 24.9475 7.76125 23.7725 9.69125C23.5961 9.98082 23.4906 10.3079 23.4644 10.646C23.4382 10.984 23.4922 11.3235 23.6219 11.6367C23.7516 11.95 23.9534 12.2282 24.2109 12.4488C24.4684 12.6694 24.7743 12.8261 25.1038 12.9062C27.2988 13.4387 27.2988 16.5613 25.1038 17.0938C24.774 17.1736 24.4678 17.3303 24.21 17.5509C23.9522 17.7715 23.7502 18.0499 23.6203 18.3633C23.4905 18.6768 23.4364 19.0165 23.4627 19.3547C23.4889 19.693 23.5946 20.0203 23.7713 20.31C24.9463 22.2387 22.7387 24.4475 20.8087 23.2725C20.5192 23.0961 20.1921 22.9906 19.854 22.9644C19.516 22.9382 19.1765 22.9922 18.8633 23.1219C18.55 23.2516 18.2718 23.4534 18.0512 23.7109C17.8306 23.9684 17.6739 24.2743 17.5938 24.6038C17.0613 26.7988 13.9387 26.7988 13.4062 24.6038C13.3264 24.274 13.1697 23.9678 12.9491 23.71C12.7285 23.4522 12.4501 23.2502 12.1367 23.1203C11.8232 22.9905 11.4835 22.9364 11.1453 22.9627C10.807 22.9889 10.4797 23.0946 10.19 23.2713C8.26125 24.4463 6.0525 22.2387 7.2275 20.3087C7.40388 20.0192 7.50944 19.6921 7.5356 19.354C7.56177 19.016 7.5078 18.6765 7.37809 18.3633C7.24838 18.05 7.04658 17.7718 6.78909 17.5512C6.53161 17.3306 6.2257 17.1739 5.89625 17.0938C3.70125 16.5613 3.70125 13.4387 5.89625 12.9062C6.226 12.8264 6.53222 12.6697 6.79 12.4491C7.04778 12.2285 7.24982 11.9501 7.37968 11.6367C7.50955 11.3232 7.56356 10.9835 7.53734 10.6453C7.51111 10.307 7.40538 9.97969 7.22875 9.69C6.05375 7.76125 8.26125 5.5525 10.1912 6.7275C11.4412 7.4875 13.0612 6.815 13.4062 5.39625Z" stroke="#64748B" stroke-width="1.5" stroke-linecap="round" stroke-linejoin="round"/>
<path d="M15.5 18.75C17.5711 18.75 19.25 17.0711 19.25 15C19.25 12.9289 17.5711 11.25 15.5 11.25C13.4289 11.25 11.75 12.9289 11.75 15C11.75 17.0711 13.4289 18.75 15.5 18.75Z" stroke="#64748B" stroke-width="1.5" stroke-linecap="round" stroke-linejoin="round"/>
</svg>
