<svg width="21" height="20" viewBox="0 0 21 20" fill="none" xmlns="http://www.w3.org/2000/svg">
<g clip-path="url(#clip0_112_298)">
<path fill-rule="evenodd" clip-rule="evenodd" d="M0.75 10.0558C0.75 15.0275 4.36083 19.1617 9.08333 20V12.7775H6.58333V10H9.08333V7.7775C9.08333 5.2775 10.6942 3.88917 12.9725 3.88917C13.6942 3.88917 14.4725 4 15.1942 4.11083V6.66667H13.9167C12.6942 6.66667 12.4167 7.2775 12.4167 8.05583V10H15.0833L14.6392 12.7775H12.4167V20C17.1392 19.1617 20.75 15.0283 20.75 10.0558C20.75 4.525 16.25 0 10.75 0C5.25 0 0.75 4.525 0.75 10.0558Z" fill="#2563EB"/>
</g>
<defs>
<clipPath id="clip0_112_298">
<rect width="20" height="20" fill="white" transform="translate(0.75)"/>
</clipPath>
</defs>
</svg>
