<svg width="21" height="20" viewBox="0 0 21 20" fill="none" xmlns="http://www.w3.org/2000/svg">
<path d="M19.5009 10.1943C19.5009 9.47489 19.4413 8.94989 19.3124 8.40546H10.9295V11.6526H15.85C15.7509 12.4596 15.2152 13.6749 14.0247 14.4915L14.008 14.6002L16.6585 16.6125L16.8421 16.6305C18.5286 15.104 19.5009 12.8582 19.5009 10.1943Z" fill="#4285F4"/>
<path d="M10.9289 18.75C13.3396 18.75 15.3633 17.9722 16.8416 16.6305L14.0241 14.4916C13.2701 15.0068 12.2582 15.3666 10.9289 15.3666C8.5678 15.3666 6.56386 13.8402 5.8495 11.7305L5.7448 11.7392L2.98875 13.8295L2.95271 13.9277C4.42094 16.786 7.43681 18.75 10.9289 18.75Z" fill="#34A853"/>
<path d="M5.85003 11.7305C5.66154 11.1861 5.55245 10.6027 5.55245 9.99998C5.55245 9.39716 5.66154 8.81385 5.84011 8.26941L5.83512 8.15346L3.04452 6.0296L2.95322 6.07216C2.34809 7.25829 2.00086 8.59026 2.00086 9.99998C2.00086 11.4097 2.34809 12.7416 2.95322 13.9277L5.85003 11.7305Z" fill="#FBBC05"/>
<path d="M10.9289 4.63331C12.6055 4.63331 13.7364 5.34303 14.3813 5.93613L16.9011 3.525C15.3536 2.11528 13.3396 1.25 10.9289 1.25C7.43683 1.25 4.42095 3.21387 2.95271 6.07218L5.8396 8.26944C6.56388 6.15972 8.56783 4.63331 10.9289 4.63331Z" fill="#EB4335"/>
</svg>
