<svg width="30" height="30" viewBox="0 0 30 30" fill="none" xmlns="http://www.w3.org/2000/svg">
<path d="M22.5 5H7.5C6.11929 5 5 6.11929 5 7.5V22.5C5 23.8807 6.11929 25 7.5 25H22.5C23.8807 25 25 23.8807 25 22.5V7.5C25 6.11929 23.8807 5 22.5 5Z" stroke="#64748B" stroke-width="2" stroke-linecap="round" stroke-linejoin="round"/>
<path d="M17.5 11.25H12.5C11.8096 11.25 11.25 11.8096 11.25 12.5V17.5C11.25 18.1904 11.8096 18.75 12.5 18.75H17.5C18.1904 18.75 18.75 18.1904 18.75 17.5V12.5C18.75 11.8096 18.1904 11.25 17.5 11.25Z" stroke="#64748B" stroke-width="2" stroke-linecap="round" stroke-linejoin="round"/>
<path d="M18.75 2.5V5M18.75 25V27.5M2.5 18.75H5M2.5 11.25H5M25 18.75H27.5M25 11.25H27.5M11.25 2.5V5M11.25 25V27.5" stroke="#64748B" stroke-width="2" stroke-linecap="round" stroke-linejoin="round"/>
</svg>
