<svg width="48" height="48" viewBox="0 0 48 48" fill="none" xmlns="http://www.w3.org/2000/svg">
<rect width="48" height="48" rx="12" fill="#EFF6FF"/>
<path d="M24 34C29.5228 34 34 29.5228 34 24C34 18.4772 29.5228 14 24 14C18.4772 14 14 18.4772 14 24C14 29.5228 18.4772 34 24 34Z" stroke="#39CEF9" stroke-width="2" stroke-linecap="round" stroke-linejoin="round"/>
<path d="M28 20H22C21.4696 20 20.9609 20.2107 20.5858 20.5858C20.2107 20.9609 20 21.4696 20 22C20 22.5304 20.2107 23.0391 20.5858 23.4142C20.9609 23.7893 21.4696 24 22 24H26C26.5304 24 27.0391 24.2107 27.4142 24.5858C27.7893 24.9609 28 25.4696 28 26C28 26.5304 27.7893 27.0391 27.4142 27.4142C27.0391 27.7893 26.5304 28 26 28H20M24 30V18" stroke="#39CEF9" stroke-width="2" stroke-linecap="round" stroke-linejoin="round"/>
</svg>
