<svg width="31" height="30" viewBox="0 0 31 30" fill="none" xmlns="http://www.w3.org/2000/svg">
<path d="M19.5607 3.75C20.2301 3.75939 20.8686 4.02896 21.3372 4.5L26.1591 9.25C26.6373 9.71158 26.911 10.3406 26.9205 11V23.75C26.9205 24.413 26.6531 25.0489 26.1772 25.5178C25.7012 25.9866 25.0557 26.25 24.3826 26.25H6.61747C5.94438 26.25 5.29886 25.9866 4.82292 25.5178C4.34697 25.0489 4.07959 24.413 4.07959 23.75V6.25C4.07959 5.58696 4.34697 4.95107 4.82292 4.48223C5.29886 4.01339 5.94438 3.75 6.61747 3.75H19.5607Z" stroke="white" stroke-width="1.5" stroke-linecap="round" stroke-linejoin="round"/>
<path d="M21.8447 26.25V17.5C21.8447 17.1685 21.711 16.8505 21.473 16.6161C21.235 16.3817 20.9123 16.25 20.5757 16.25H10.4242C10.0877 16.25 9.76491 16.3817 9.52694 16.6161C9.28897 16.8505 9.15527 17.1685 9.15527 17.5V26.25M9.15527 3.75V8.75C9.15527 9.08152 9.28897 9.39946 9.52694 9.63388C9.76491 9.8683 10.0877 10 10.4242 10H19.3068" stroke="white" stroke-width="1.5" stroke-linecap="round" stroke-linejoin="round"/>
</svg>
