<svg width="25" height="30" viewBox="0 0 25 30" fill="none" xmlns="http://www.w3.org/2000/svg">
<path fill-rule="evenodd" clip-rule="evenodd" d="M17.723 0.312712C18.4421 -0.0873867 19.3512 0.167884 19.7536 0.882875C22.1709 5.17795 23.4418 10.0467 23.4418 15.0002C23.4418 19.9537 22.1709 24.8224 19.7536 29.1175C19.3512 29.8325 18.4421 30.0877 17.723 29.6876C17.0039 29.2875 16.7471 28.3836 17.1495 27.6686C19.3156 23.8198 20.4577 19.4504 20.4577 15.0002C20.4577 10.5499 19.3156 6.18057 17.1495 2.33176C16.7471 1.61677 17.0039 0.712811 17.723 0.312712ZM11.9786 3.25914C12.6977 2.85904 13.6069 3.11431 14.0093 3.8293C15.9224 7.22855 16.9278 11.0811 16.9278 15.0002C16.9278 18.9193 15.9224 22.7718 14.0093 26.171C13.6069 26.886 12.6977 27.1413 11.9786 26.7412C11.2595 26.3411 11.0028 25.4372 11.4052 24.7222C13.0671 21.7692 13.9437 18.416 13.9437 15.0002C13.9437 11.5843 13.0671 8.23117 11.4052 5.27819C11.0028 4.5632 11.2595 3.65924 11.9786 3.25914ZM6.50123 5.96125C7.22213 5.56437 8.13012 5.82371 8.52928 6.54049C9.94557 9.08377 10.689 11.9642 10.689 14.893C10.689 17.8218 9.94557 20.7023 8.52928 23.2456C8.13012 23.9624 7.22213 24.2217 6.50123 23.8248C5.78033 23.4279 5.51951 22.5251 5.91867 21.8083C7.0874 19.7096 7.7049 17.3244 7.7049 14.893C7.7049 12.4617 7.0874 10.0765 5.91867 7.97772C5.51951 7.26094 5.78033 6.35813 6.50123 5.96125ZM0.936074 8.92946C1.63 8.4876 2.5528 8.68872 2.9972 9.37868C4.08131 11.0618 4.65811 13.0096 4.65811 15.0002C4.65811 16.9907 4.08131 18.9385 2.9972 20.6217C2.5528 21.3116 1.63 21.5128 0.936074 21.0709C0.242148 20.629 0.0398675 19.7115 0.484268 19.0215C1.26316 17.8123 1.67404 16.4191 1.67404 15.0002C1.67404 13.5813 1.26316 12.1881 0.484268 10.9788C0.0398675 10.2888 0.242148 9.37132 0.936074 8.92946Z" fill="#2B2929"/>
</svg>
