<svg width="30" height="30" viewBox="0 0 30 30" fill="none" xmlns="http://www.w3.org/2000/svg">
<path d="M22.5 25C22.5 23.0109 21.7098 21.1032 20.3033 19.6967C18.8968 18.2902 16.9891 17.5 15 17.5C13.0109 17.5 11.1032 18.2902 9.6967 19.6967C8.29018 21.1032 7.5 23.0109 7.5 25" stroke="#64748B" stroke-width="1.5" stroke-linecap="round" stroke-linejoin="round"/>
<path d="M15 17.5C17.7614 17.5 20 15.2614 20 12.5C20 9.73858 17.7614 7.5 15 7.5C12.2386 7.5 10 9.73858 10 12.5C10 15.2614 12.2386 17.5 15 17.5Z" stroke="#64748B" stroke-width="1.5" stroke-linecap="round" stroke-linejoin="round"/>
<path d="M15 27.5C21.9036 27.5 27.5 21.9036 27.5 15C27.5 8.09644 21.9036 2.5 15 2.5C8.09644 2.5 2.5 8.09644 2.5 15C2.5 21.9036 8.09644 27.5 15 27.5Z" stroke="#64748B" stroke-width="1.5" stroke-linecap="round" stroke-linejoin="round"/>
</svg>
