<svg width="25" height="24" viewBox="0 0 25 24" fill="none" xmlns="http://www.w3.org/2000/svg">
<path d="M10.4062 2.39625C10.9387 0.20125 14.0613 0.20125 14.5938 2.39625C14.6736 2.726 14.8303 3.03222 15.0509 3.29C15.2715 3.54778 15.5499 3.74982 15.8633 3.87968C16.1768 4.00955 16.5165 4.06356 16.8547 4.03734C17.193 4.01111 17.5203 3.90538 17.81 3.72875C19.7387 2.55375 21.9475 4.76125 20.7725 6.69125C20.5961 6.98082 20.4906 7.30792 20.4644 7.64597C20.4382 7.98401 20.4922 8.32346 20.6219 8.63672C20.7516 8.94999 20.9534 9.22822 21.2109 9.44882C21.4684 9.66941 21.7743 9.82613 22.1038 9.90625C24.2988 10.4387 24.2988 13.5613 22.1038 14.0938C21.774 14.1736 21.4678 14.3303 21.21 14.5509C20.9522 14.7715 20.7502 15.0499 20.6203 15.3633C20.4905 15.6768 20.4364 16.0165 20.4627 16.3547C20.4889 16.693 20.5946 17.0203 20.7713 17.31C21.9463 19.2387 19.7387 21.4475 17.8087 20.2725C17.5192 20.0961 17.1921 19.9906 16.854 19.9644C16.516 19.9382 16.1765 19.9922 15.8633 20.1219C15.55 20.2516 15.2718 20.4534 15.0512 20.7109C14.8306 20.9684 14.6739 21.2743 14.5938 21.6038C14.0613 23.7988 10.9387 23.7988 10.4062 21.6038C10.3264 21.274 10.1697 20.9678 9.94911 20.71C9.7285 20.4522 9.45014 20.2502 9.13669 20.1203C8.82323 19.9905 8.48354 19.9364 8.14527 19.9627C7.80699 19.9889 7.47969 20.0946 7.19 20.2713C5.26125 21.4463 3.0525 19.2387 4.2275 17.3087C4.40388 17.0192 4.50944 16.6921 4.5356 16.354C4.56177 16.016 4.5078 15.6765 4.37809 15.3633C4.24838 15.05 4.04658 14.7718 3.78909 14.5512C3.53161 14.3306 3.2257 14.1739 2.89625 14.0938C0.70125 13.5613 0.70125 10.4387 2.89625 9.90625C3.226 9.82635 3.53222 9.66972 3.79 9.44911C4.04778 9.2285 4.24982 8.95014 4.37968 8.63669C4.50955 8.32323 4.56356 7.98354 4.53734 7.64527C4.51111 7.30699 4.40538 6.97969 4.22875 6.69C3.05375 4.76125 5.26125 2.5525 7.19125 3.7275C8.44125 4.4875 10.0612 3.815 10.4062 2.39625Z" stroke="#64748B" stroke-width="1.5" stroke-linecap="round" stroke-linejoin="round"/>
<path d="M12.5 15.75C14.5711 15.75 16.25 14.0711 16.25 12C16.25 9.92893 14.5711 8.25 12.5 8.25C10.4289 8.25 8.75 9.92893 8.75 12C8.75 14.0711 10.4289 15.75 12.5 15.75Z" stroke="#64748B" stroke-width="1.5" stroke-linecap="round" stroke-linejoin="round"/>
</svg>
