<svg width="39" height="38" viewBox="0 0 39 38" fill="none" xmlns="http://www.w3.org/2000/svg">
<g filter="url(#filter0_d_2155_296)">
<mask id="path-1-inside-1_2155_296" fill="white">
<path d="M5 6C5 2.68629 7.68629 0 11 0H29C32.3137 0 35 2.68629 35 6V24C35 27.3137 32.3137 30 29 30H11C7.68629 30 5 27.3137 5 24V6Z"/>
</mask>
<path d="M5 6C5 2.68629 7.68629 0 11 0H29C32.3137 0 35 2.68629 35 6V24C35 27.3137 32.3137 30 29 30H11C7.68629 30 5 27.3137 5 24V6Z" fill="white"/>
<path d="M3 6C3 1.58172 6.58172 -2 11 -2H30C34.4183 -2 38 1.58172 38 6H32C32 3.79086 30.6569 2 29 2H11C8.79086 2 7 3.79086 7 6H3ZM38 24C38 28.9706 33.9706 33 29 33H11C6.58172 33 3 29.4183 3 25L7 24C7 25.6569 8.79086 27 11 27H29C30.6569 27 32 25.6569 32 24H38ZM11 33C6.58172 33 3 29.4183 3 25V6C3 1.58172 6.58172 -2 11 -2V2C8.79086 2 7 3.79086 7 6V24C7 25.6569 8.79086 27 11 27V33ZM30 -2C34.4183 -2 38 1.58172 38 6V24C38 28.9706 33.9706 33 29 33V27C30.6569 27 32 25.6569 32 24V6C32 3.79086 30.6569 2 29 2L30 -2Z" fill="#FFC72C" mask="url(#path-1-inside-1_2155_296)"/>
<path d="M27.2503 9.49999C27.0003 9.58332 26.7503 9.66666 26.5003 9.74999C26.8337 9.41666 27.0837 8.99999 27.167 8.49999C27.167 8.41666 27.167 8.24999 27.0837 8.24999C27.0003 8.24999 26.8337 8.24999 26.7503 8.24999C26.167 8.58332 25.5837 8.83332 25.0003 8.91666C24.3337 8.33332 23.5003 7.91666 22.5837 7.91666C20.7503 7.91666 19.167 9.41666 19.167 11.3333C19.167 11.5 19.167 11.6667 19.167 11.75C16.8337 11.5833 14.667 10.4167 13.167 8.58332C13.0837 8.49999 13.0003 8.49999 12.917 8.49999C12.8337 8.49999 12.7503 8.58332 12.7503 8.66666C12.417 9.16666 12.2503 9.74999 12.2503 10.4167C12.2503 11.25 12.5837 12 13.0837 12.5833C12.917 12.5 12.7503 12.5 12.667 12.4167C12.667 12.4167 12.5837 12.4167 12.5003 12.4167C12.417 12.5 12.3337 12.5833 12.3337 12.6667C12.3337 12.6667 12.3337 12.6667 12.3337 12.75C12.3337 14 13.0003 15.0833 14.0003 15.6667C13.917 15.6667 13.8337 15.6667 13.7503 15.6667C13.667 15.6667 13.5837 15.6667 13.5003 15.75C13.417 15.8333 13.417 15.9167 13.417 16C13.7503 17.1667 14.7503 18 15.917 18.25C14.917 18.8333 13.8337 19.1667 12.667 19.1667C12.417 19.1667 12.167 19.1667 11.917 19.0833C11.8337 19.0833 11.667 19.1667 11.667 19.25C11.667 19.3333 11.667 19.5 11.7503 19.5833C13.2503 20.5 14.917 21 16.667 21C20.167 21 22.3337 19.3333 23.5003 18C25.0003 16.3333 25.8337 14 25.8337 11.8333C25.8337 11.75 25.8337 11.6667 25.8337 11.5833C26.417 11.1667 26.917 10.5833 27.3337 9.99999C27.417 9.91666 27.417 9.74999 27.3337 9.66666C27.417 9.49999 27.3337 9.49999 27.2503 9.49999Z" fill="#DA291C"/>
</g>
<defs>
<filter id="filter0_d_2155_296" x="-4" y="0" width="43" height="38" filterUnits="userSpaceOnUse" color-interpolation-filters="sRGB">
<feFlood flood-opacity="0" result="BackgroundImageFix"/>
<feColorMatrix in="SourceAlpha" type="matrix" values="0 0 0 0 0 0 0 0 0 0 0 0 0 0 0 0 0 0 127 0" result="hardAlpha"/>
<feOffset dy="4"/>
<feGaussianBlur stdDeviation="2"/>
<feComposite in2="hardAlpha" operator="out"/>
<feColorMatrix type="matrix" values="0 0 0 0 0 0 0 0 0 0 0 0 0 0 0 0 0 0 0.25 0"/>
<feBlend mode="normal" in2="BackgroundImageFix" result="effect1_dropShadow_2155_296"/>
<feBlend mode="normal" in="SourceGraphic" in2="effect1_dropShadow_2155_296" result="shape"/>
</filter>
</defs>
</svg>
