<svg width="30" height="30" viewBox="0 0 30 30" fill="none" xmlns="http://www.w3.org/2000/svg">
<mask id="path-1-inside-1_2155_284" fill="white">
<path d="M0 6C0 2.68629 2.68629 0 6 0H24C27.3137 0 30 2.68629 30 6V24C30 27.3137 27.3137 30 24 30H6C2.68629 30 0 27.3137 0 24V6Z"/>
</mask>
<path d="M0 6C0 2.68629 2.68629 0 6 0H24C27.3137 0 30 2.68629 30 6V24C30 27.3137 27.3137 30 24 30H6C2.68629 30 0 27.3137 0 24V6Z" fill="white"/>
<path d="M-2 6C-2 1.58172 1.58172 -2 6 -2H25C29.4183 -2 33 1.58172 33 6H27C27 3.79086 25.6569 2 24 2H6C3.79086 2 2 3.79086 2 6H-2ZM33 24C33 28.9706 28.9706 33 24 33H6C1.58172 33 -2 29.4183 -2 25L2 24C2 25.6569 3.79086 27 6 27H24C25.6569 27 27 25.6569 27 24H33ZM6 33C1.58172 33 -2 29.4183 -2 25V6C-2 1.58172 1.58172 -2 6 -2V2C3.79086 2 2 3.79086 2 6V24C2 25.6569 3.79086 27 6 27V33ZM25 -2C29.4183 -2 33 1.58172 33 6V24C33 28.9706 28.9706 33 24 33V27C25.6569 27 27 25.6569 27 24V6C27 3.79086 25.6569 2 24 2L25 -2Z" fill="#FFC700" mask="url(#path-1-inside-1_2155_284)"/>
<path fill-rule="evenodd" clip-rule="evenodd" d="M15.8316 12.2069C16.305 11.9626 16.9074 11.6028 17.5105 11.11C17.6376 11.3834 17.6516 11.6219 17.586 11.8145C17.5396 11.9503 17.4521 12.0683 17.3371 12.1623C17.2125 12.2638 17.0569 12.3377 16.8849 12.3777C16.5586 12.4538 16.1776 12.4093 15.8316 12.2069ZM15.9136 14.7108L16.5403 15.0855C15.2608 15.8279 14.9129 17.2064 14.4997 18.5491C14.0865 17.2064 13.7386 15.8279 12.4591 15.0855L13.0858 14.7108C13.1464 14.687 13.1982 14.6441 13.2338 14.588C13.2694 14.5319 13.2869 14.4656 13.2839 14.3986C13.2265 13.1412 13.5544 12.5851 13.9969 12.2359C14.1555 12.1109 14.3288 12.0481 14.4997 12.0481C14.6706 12.0481 14.8438 12.1109 15.0026 12.2359C15.445 12.5851 15.773 13.1412 15.7155 14.3986C15.7125 14.4656 15.73 14.5319 15.7656 14.588C15.8012 14.6441 15.853 14.687 15.9136 14.7108ZM14.4997 6.5C15.2241 6.52013 15.9503 6.66571 16.5805 6.9489C17.0169 7.14526 17.4242 7.40464 17.7929 7.7148C17.9594 7.85483 18.0966 7.99009 18.2476 8.14582C18.655 8.1604 19.2504 7.69189 19.5268 7.25351C19.0511 8.86787 16.8804 10.7743 15.3776 11.5038C15.377 11.5035 15.3766 11.5031 15.3761 11.5028C15.1064 11.2896 14.8031 11.183 14.4997 11.183C14.1963 11.183 13.893 11.2896 13.6233 11.5028C13.6229 11.5031 13.6224 11.5036 13.6218 11.5038C12.119 10.7743 9.94834 8.86787 9.47266 7.25351C9.74901 7.69189 10.3444 8.1604 10.7518 8.14582C10.9029 7.99015 11.04 7.85483 11.2065 7.7148C11.5752 7.40464 11.9824 7.14526 12.4189 6.9489C13.0492 6.66571 13.7753 6.52013 14.4997 6.5ZM13.1678 12.2069C12.6944 11.9626 12.092 11.6028 11.4889 11.11C11.3618 11.3834 11.3479 11.6219 11.4133 11.8145C11.4598 11.9503 11.5473 12.0683 11.6623 12.1623C11.7869 12.2638 11.9425 12.3377 12.1145 12.3777C12.4408 12.4538 12.8218 12.4093 13.1678 12.2069Z" fill="#DA291C"/>
<path fill-rule="evenodd" clip-rule="evenodd" d="M18.1713 10.5064C18.5033 10.1596 18.7959 9.77568 19.0311 9.43311L19.1506 9.66589C19.5352 10.4625 19.7351 11.2559 19.7351 12.1488L19.7343 13.5657L19.7415 14.3002C19.7693 16.1034 20.1462 17.9278 21 19.5973L19.2137 18.1062L17.9497 20.2295L16.6219 18.9355L14.5 22.5L12.3781 18.9355L11.0503 20.2295L9.78637 18.1063L8 19.5974C8.85377 17.9278 9.23067 16.1034 9.25858 14.3002L9.2658 13.5657L9.26497 12.1488C9.26497 11.2559 9.46477 10.4625 9.84951 9.66594L9.96893 9.43316C10.2042 9.77574 10.4967 10.1596 10.8287 10.5065L10.725 10.7295C10.5236 11.1625 10.4569 11.6467 10.6138 12.1072C10.715 12.4038 10.8996 12.6581 11.1376 12.8523C11.3688 13.0409 11.6423 13.168 11.9286 13.2347C12.1152 13.2782 12.3052 13.2961 12.494 13.29C12.45 13.5485 12.4307 13.8167 12.4295 14.0899L10.7444 15.0974L12.0448 15.8519C12.1487 15.9122 12.2476 15.9813 12.3406 16.0585C13.4126 17.0549 14.0571 20.0026 14.5001 21.4423C14.943 20.0026 15.5875 17.0549 16.6596 16.0585C16.7525 15.9813 16.8515 15.9122 16.9554 15.8519L18.2557 15.0974L16.5706 14.0899C16.5694 13.8167 16.5501 13.5485 16.5061 13.29C16.6949 13.2961 16.8849 13.2782 17.0715 13.2347C17.3578 13.168 17.6314 13.0409 17.8625 12.8523C18.1004 12.6581 18.2851 12.4038 18.3862 12.1072C18.5432 11.6467 18.4765 11.1626 18.2751 10.7295L18.1714 10.5065L18.1713 10.5064Z" fill="#DA291C"/>
</svg>
